<svg xmlns="http://www.w3.org/2000/svg" viewBox="0 0 320 720" fill="none" aria-hidden="true">
  <defs>
    <linearGradient id="trunk" x1="0%" y1="0%" x2="100%" y2="0%">
      <stop offset="0%" stop-color="#3d2914"/>
      <stop offset="100%" stop-color="#5c3d1e"/>
    </linearGradient>
    <linearGradient id="frond" x1="0%" y1="100%" x2="0%" y2="0%">
      <stop offset="0%" stop-color="#0f3d2a"/>
      <stop offset="100%" stop-color="#1a5c40"/>
    </linearGradient>
  </defs>
  <!-- Palm 1 -->
  <path fill="url(#trunk)" d="M52 720V380c0-8 6-14 14-14h8c8 0 14 6 14 14v340H52z"/>
  <ellipse cx="64" cy="340" rx="120" ry="95" fill="url(#frond)" opacity="0.92" transform="rotate(-8 64 340)"/>
  <ellipse cx="64" cy="360" rx="100" ry="80" fill="url(#frond)" opacity="0.75" transform="rotate(22 64 360)"/>
  <ellipse cx="64" cy="350" rx="90" ry="70" fill="url(#frond)" opacity="0.65" transform="rotate(-35 64 350)"/>
  <!-- Palm 2 -->
  <path fill="url(#trunk)" d="M168 720V420c0-8 6-14 14-14h8c8 0 14 6 14 14v300h-36z"/>
  <ellipse cx="182" cy="380" rx="105" ry="88" fill="url(#frond)" opacity="0.9" transform="rotate(12 182 380)"/>
  <ellipse cx="182" cy="395" rx="88" ry="72" fill="url(#frond)" opacity="0.7" transform="rotate(-28 182 395)"/>
  <!-- Palm 3 -->
  <path fill="url(#trunk)" d="M248 720V450c0-7 5-12 12-12h6c7 0 12 5 12 12v270h-30z"/>
  <ellipse cx="266" cy="410" rx="95" ry="78" fill="url(#frond)" opacity="0.88" transform="rotate(-6 266 410)"/>
  <ellipse cx="266" cy="425" rx="78" ry="62" fill="url(#frond)" opacity="0.68" transform="rotate(30 266 425)"/>
</svg>
